<svg width="416" height="56" viewBox="0 0 416 56" fill="none" xmlns="http://www.w3.org/2000/svg">
<path d="M216.55 44C215.817 44 215.2 43.75 214.7 43.25C214.233 42.75 214 42.1333 214 41.4V7.55C214 6.81666 214.25 6.2 214.75 5.7C215.25 5.2 215.85 4.95 216.55 4.95C217.283 4.95 217.9 5.2 218.4 5.7C218.9 6.2 219.15 6.81666 219.15 7.55V38.8H237.25C237.983 38.8 238.6 39.05 239.1 39.55C239.6 40.05 239.85 40.6667 239.85 41.4C239.85 42.1333 239.6 42.75 239.1 43.25C238.6 43.75 237.983 44 237.25 44H216.55ZM252.68 44C251.947 44 251.33 43.75 250.83 43.25C250.33 42.75 250.08 42.1333 250.08 41.4V7.55C250.08 6.78333 250.33 6.16666 250.83 5.7C251.33 5.2 251.947 4.95 252.68 4.95C253.447 4.95 254.063 5.2 254.53 5.7C255.03 6.16666 255.28 6.78333 255.28 7.55V41.4C255.28 42.1333 255.03 42.75 254.53 43.25C254.063 43.75 253.447 44 252.68 44ZM269.566 44C268.799 44 268.182 43.75 267.716 43.25C267.282 42.75 267.032 42.1833 266.966 41.55C266.932 40.8833 267.116 40.3 267.516 39.8L291.966 9.55H270.066C269.232 9.55 268.599 9.35 268.166 8.95C267.766 8.51666 267.582 7.98333 267.616 7.35C267.582 6.65 267.816 6.08333 268.316 5.65C268.816 5.18333 269.432 4.95 270.166 4.95H295.966C296.732 4.95 297.349 5.18333 297.816 5.65C298.282 6.11667 298.549 6.68333 298.616 7.35C298.682 7.98333 298.499 8.55 298.066 9.05L273.516 39.4H295.966C296.732 39.4 297.349 39.6333 297.816 40.1C298.282 40.5333 298.516 41.05 298.516 41.65C298.516 42.3833 298.282 42.9667 297.816 43.4C297.349 43.8 296.732 44 295.966 44H269.566ZM312.975 44C312.242 44 311.625 43.75 311.125 43.25C310.625 42.75 310.375 42.1333 310.375 41.4V7.55C310.375 6.78333 310.625 6.16666 311.125 5.7C311.625 5.2 312.242 4.95 312.975 4.95H335.575C336.342 4.95 336.958 5.18333 337.425 5.65C337.892 6.08333 338.125 6.66667 338.125 7.4C338.125 8.1 337.892 8.66667 337.425 9.1C336.958 9.53333 336.342 9.75 335.575 9.75H315.575V21.9H329.925C330.692 21.9 331.308 22.1333 331.775 22.6C332.242 23.0333 332.475 23.6 332.475 24.3C332.475 25 332.242 25.5833 331.775 26.05C331.308 26.4833 330.692 26.7 329.925 26.7H315.575V39.2H335.575C336.342 39.2 336.958 39.4167 337.425 39.85C337.892 40.2833 338.125 40.85 338.125 41.55C338.125 42.2833 337.892 42.8833 337.425 43.35C336.958 43.7833 336.342 44 335.575 44H312.975ZM370.633 44C369.9 44 369.283 43.75 368.783 43.25C368.283 42.75 368.033 42.1333 368.033 41.4V7.55C368.033 6.78333 368.283 6.16666 368.783 5.7C369.283 5.2 369.9 4.95 370.633 4.95C371.4 4.95 372.017 5.2 372.483 5.7C372.983 6.16666 373.233 6.78333 373.233 7.55V41.4C373.233 42.1333 372.983 42.75 372.483 43.25C372.017 43.75 371.4 44 370.633 44ZM398.769 44C398.035 44 397.419 43.75 396.919 43.25C396.419 42.75 396.169 42.1333 396.169 41.4V4.95H401.369V41.4C401.369 42.1333 401.119 42.75 400.619 43.25C400.119 43.75 399.502 44 398.769 44ZM385.369 9.75C384.669 9.75 384.085 9.53333 383.619 9.1C383.185 8.63333 382.969 8.05 382.969 7.35C382.969 6.65 383.185 6.08333 383.619 5.65C384.085 5.18333 384.669 4.95 385.369 4.95H412.119C412.819 4.95 413.385 5.18333 413.819 5.65C414.285 6.08333 414.519 6.65 414.519 7.35C414.519 8.05 414.285 8.63333 413.819 9.1C413.385 9.53333 412.819 9.75 412.119 9.75H385.369Z" fill="#2683EE"/>
<path d="M7.6 44C6.86667 44 6.25 43.75 5.75 43.25C5.25 42.75 5 42.1333 5 41.4V7.55C5 6.78333 5.25 6.16666 5.75 5.7C6.25 5.2 6.86667 4.95 7.6 4.95H30.2C30.9667 4.95 31.5833 5.18333 32.05 5.65C32.5167 6.08333 32.75 6.66667 32.75 7.4C32.75 8.1 32.5167 8.66667 32.05 9.1C31.5833 9.53333 30.9667 9.75 30.2 9.75H10.2V21.9H24.55C25.3167 21.9 25.9333 22.1333 26.4 22.6C26.8667 23.0333 27.1 23.6 27.1 24.3C27.1 25 26.8667 25.5833 26.4 26.05C25.9333 26.4833 25.3167 26.7 24.55 26.7H10.2V39.2H30.2C30.9667 39.2 31.5833 39.4167 32.05 39.85C32.5167 40.2833 32.75 40.85 32.75 41.55C32.75 42.2833 32.5167 42.8833 32.05 43.35C31.5833 43.7833 30.9667 44 30.2 44H7.6ZM75.7098 43.2L65.2598 32.75C64.7264 32.2167 64.4598 31.6333 64.4598 31C64.4598 30.3333 64.7264 29.7333 65.2598 29.2C65.7931 28.6667 66.3764 28.4 67.0098 28.4C67.6764 28.4 68.2764 28.6667 68.8098 29.2L79.2598 39.7C79.7598 40.2333 80.0098 40.8167 80.0098 41.45C80.0431 42.0833 79.7931 42.6667 79.2598 43.2C78.7264 43.7333 78.1264 44 77.4598 44C76.8264 44 76.2431 43.7333 75.7098 43.2ZM62.0598 44.5C59.1264 44.5 56.4431 44.0167 54.0098 43.05C51.5764 42.05 49.4764 40.6667 47.7098 38.9C45.9764 37.1 44.6264 34.9833 43.6598 32.55C42.6931 30.0833 42.2098 27.3833 42.2098 24.45C42.2098 21.5167 42.6931 18.8333 43.6598 16.4C44.6264 13.9667 45.9764 11.8667 47.7098 10.1C49.4764 8.3 51.5764 6.91666 54.0098 5.95C56.4431 4.95 59.1264 4.45 62.0598 4.45C64.9931 4.45 67.6598 4.95 70.0598 5.95C72.4931 6.91666 74.5931 8.3 76.3598 10.1C78.1264 11.8667 79.4931 13.9667 80.4598 16.4C81.4264 18.8333 81.9098 21.5167 81.9098 24.45C81.9098 27.3833 81.4264 30.0833 80.4598 32.55C79.4931 34.9833 78.1264 37.1 76.3598 38.9C74.5931 40.6667 72.4931 42.05 70.0598 43.05C67.6598 44.0167 64.9931 44.5 62.0598 44.5ZM62.0598 39.8C64.2264 39.8 66.2098 39.4167 68.0098 38.65C69.8431 37.85 71.4264 36.7667 72.7598 35.4C74.0931 34 75.1098 32.3667 75.8098 30.5C76.5431 28.6333 76.9098 26.6167 76.9098 24.45C76.9098 22.2833 76.5431 20.2667 75.8098 18.4C75.1098 16.5333 74.0931 14.9167 72.7598 13.55C71.4264 12.15 69.8431 11.0667 68.0098 10.3C66.2098 9.53333 64.2264 9.15 62.0598 9.15C59.8931 9.15 57.8931 9.53333 56.0598 10.3C54.2598 11.0667 52.6931 12.15 51.3598 13.55C50.0598 14.9167 49.0431 16.5333 48.3098 18.4C47.5764 20.2667 47.2098 22.2833 47.2098 24.45C47.2098 26.6167 47.5764 28.6333 48.3098 30.5C49.0431 32.3667 50.0598 34 51.3598 35.4C52.6931 36.7667 54.2598 37.85 56.0598 38.65C57.8931 39.4167 59.8931 39.8 62.0598 39.8ZM110.405 44.8C107.205 44.8 104.371 44.2167 101.905 43.05C99.438 41.85 97.5047 40.2 96.1047 38.1C94.738 36 94.0547 33.6 94.0547 30.9V7.55C94.0547 6.78333 94.3047 6.16666 94.8047 5.7C95.3047 5.2 95.9214 4.95 96.6547 4.95C97.4214 4.95 98.038 5.2 98.5047 5.7C99.0047 6.16666 99.2547 6.78333 99.2547 7.55V30.9C99.2547 32.7 99.7214 34.3 100.655 35.7C101.621 37.0667 102.938 38.15 104.605 38.95C106.305 39.7167 108.238 40.1 110.405 40.1C112.505 40.1 114.355 39.7167 115.955 38.95C117.588 38.15 118.855 37.0667 119.755 35.7C120.688 34.3 121.155 32.7 121.155 30.9V7.55C121.155 6.78333 121.405 6.16666 121.905 5.7C122.405 5.2 123.021 4.95 123.755 4.95C124.521 4.95 125.138 5.2 125.605 5.7C126.071 6.16666 126.305 6.78333 126.305 7.55V30.9C126.305 33.6 125.621 36 124.255 38.1C122.921 40.2 121.055 41.85 118.655 43.05C116.255 44.2167 113.505 44.8 110.405 44.8Z" fill="#2683EE"/>
<path d="M142 24.5002H153.398C153.883 24.5002 154.319 24.2089 154.499 23.7646L160.999 7.73559C161.397 6.7548 162.804 6.7548 163.202 7.73559L176.798 41.2644C177.196 42.2452 178.603 42.2452 179.001 41.2644L185.501 25.2358C185.681 24.7915 186.117 24.5002 186.602 24.5002L198 24.5" stroke="#FF5050" stroke-width="4.5" stroke-miterlimit="16" stroke-linecap="round" stroke-linejoin="round"/>
</svg>
